# xmcd CD database file
#
# Track frame offsets:
#	150
#	14570
#	24287
#	32897
#	38010
#	49212
#	61297
#	76575
#	90007
#	101465
#	111837
#	123757
#	134757
#	146867
#	157545
#	169432
#	181935
#	190007
#	198502
#	209177
#
# Disc length: 2902 seconds
#
# Revision: 0
# Processed by: cddbd v1.4PL0 Copyright (c) Steve Scherf et al.
# Submitted via: CDex 1.50
#
DISCID=0a0b5414
DTITLE=Various Artist - Country Classics Volume 3
DYEAR=1995
DGENRE=Country
TTITLE0=Glen Campell - Rhinestone Cowboy - Live
TTITLE1=Glen Campell - Gentle On My Mind - Live
TTITLE2=Glen Campell - Wichita Lineman - Live
TTITLE3=Glen Campell - Galveston - Live
TTITLE4=Glen Campell - Try A Little Kindness - Live
TTITLE5=Glen Campell - It's Only Make Believe - Live
TTITLE6=Roy Clark - September Song
TTITLE7=Roy Clark - Come Live With Me
TTITLE8=Patsy Cline - Walkin' After Midnight
TTITLE9=Dave Dudley - Six Days On The Road
TTITLE10=George Jones - White Lightning
TTITLE11=George Jones - Tender Years
TTITLE12=Tommy Overstreet - Gwen (Congratulations)
TTITLE13=Tommy Overstreet - Ann (Don't Go Runnin')
TTITLE14=Tommy Overstreet - Heaven Is My Woman's Love
TTITLE15=Tommy Overstreet - Jeannie Marie (You Were A Lady)
TTITLE16=Webb Pierce - It's Been So Long - Live
TTITLE17=Webb Pierce - Even Thou - Live
TTITLE18=Webb Pierce - In The Jailhouse Now - Live
TTITLE19=Webb Pierce - Slowly - Live
EXTD=YEAR: 1995
EXTT0=
EXTT1=
EXTT2=
EXTT3=
EXTT4=
EXTT5=
EXTT6=
EXTT7=
EXTT8=
EXTT9=
EXTT10=
EXTT11=
EXTT12=
EXTT13=
EXTT14=
EXTT15=
EXTT16=
EXTT17=
EXTT18=
EXTT19=
PLAYORDER=
